<svg id="Layer_1" data-name="Layer 1" xmlns="http://www.w3.org/2000/svg" viewBox="0 0 33 33">
  <defs>
    <style>
      .cls-1 {
        fill: #33bbcf;
      }

      .cls-1, .cls-2 {
        stroke-width: 0px;
      }

      .cls-2 {
        fill: #13131e;
      }
    </style>
  </defs>
  <rect class="cls-2" width="33" height="33"/>
  <path class="cls-1" d="M20.9,7.94c2.12,4.74,4.28,9.45,6.42,14.17.51,1.13,1.08,2.24,1.52,3.4l-3.92,2.88c-.34-.76-.68-1.52-1.02-2.28-2.4-5.31-4.8-10.62-7.13-15.95l-.31-.45c-2.52,5.47-4.81,11.05-7.25,16.55-.32.72-.67,1.43-.95,2.16l-.12.07-4.11-3.02c.49-1.13,1.02-2.23,1.52-3.35,2.16-4.78,4.37-9.53,6.51-14.31.17-.37,1.23-2.99,1.4-3.04h5.99c.5,1.05.97,2.12,1.45,3.19Z"/>
  <path class="cls-1" d="M13.79,18.68c.73-.04-.14.87,0,.95h5.61l.07-.07c-.77-.77-.05-.91.02-.88.27.11,2.06,4.77,2.4,5.35l-10.58.02c.45-.97,1.86-4.57,2.12-5.02.08-.13.17-.35.36-.36Z"/>
</svg>
