<svg width="266" height="73" viewBox="0 0 266 73" fill="none" xmlns="http://www.w3.org/2000/svg">
<path d="M107.487 29.2599V57.9067H101.725V45.4498H89.4707V57.9067H83.7494V29.2599H89.4707V40.8647H101.725V29.2599H107.487ZM123.063 35.1434C125.255 35.1434 127.216 35.6033 128.947 36.523C130.705 37.4428 132.085 38.7818 133.086 40.5401C134.087 42.2713 134.587 44.3137 134.587 46.6671C134.587 49.0205 134.087 51.0629 133.086 52.7941C132.085 54.5254 130.705 55.8644 128.947 56.8112C127.216 57.7309 125.255 58.1908 123.063 58.1908C120.872 58.1908 118.898 57.7309 117.139 56.8112C115.408 55.8644 114.042 54.5254 113.041 52.7941C112.04 51.0629 111.54 49.0205 111.54 46.6671C111.54 44.3137 112.04 42.2713 113.041 40.5401C114.042 38.7818 115.408 37.4428 117.139 36.523C118.898 35.6033 120.872 35.1434 123.063 35.1434ZM123.063 40.0938C121.467 40.0938 120.115 40.6618 119.006 41.798C117.897 42.907 117.342 44.5301 117.342 46.6671C117.342 48.8041 117.897 50.4407 119.006 51.5768C120.115 52.6859 121.467 53.2405 123.063 53.2405C124.659 53.2405 126.012 52.6859 127.121 51.5768C128.23 50.4407 128.785 48.8041 128.785 46.6671C128.785 44.5301 128.23 42.907 127.121 41.798C126.012 40.6618 124.659 40.0938 123.063 40.0938ZM149.018 35.1434C151.209 35.1434 153.17 35.6033 154.901 36.523C156.66 37.4428 158.039 38.7818 159.04 40.5401C160.041 42.2713 160.542 44.3137 160.542 46.6671C160.542 49.0205 160.041 51.0629 159.04 52.7941C158.039 54.5254 156.66 55.8644 154.901 56.8112C153.17 57.7309 151.209 58.1908 149.018 58.1908C146.827 58.1908 144.852 57.7309 143.094 56.8112C141.363 55.8644 139.996 54.5254 138.996 52.7941C137.995 51.0629 137.494 49.0205 137.494 46.6671C137.494 44.3137 137.995 42.2713 138.996 40.5401C139.996 38.7818 141.363 37.4428 143.094 36.523C144.852 35.6033 146.827 35.1434 149.018 35.1434ZM149.018 40.0938C147.422 40.0938 146.069 40.6618 144.96 41.798C143.851 42.907 143.297 44.5301 143.297 46.6671C143.297 48.8041 143.851 50.4407 144.96 51.5768C146.069 52.6859 147.422 53.2405 149.018 53.2405C150.614 53.2405 151.966 52.6859 153.076 51.5768C154.185 50.4407 154.739 48.8041 154.739 46.6671C154.739 44.5301 154.185 42.907 153.076 41.798C151.966 40.6618 150.614 40.0938 149.018 40.0938Z" fill="white"/>
<path d="M180.572 43.137C182.303 43.4886 183.683 44.31315.6747 2.7455 22.2652C0.0156126 28.8558 -0.698651 36.1078 0.693031 43.1043C2.08471 50.1007 5.51984 56.5274 10.564 61.5716C15.6082 66.6157 22.0348 70.0509 29.0313 71.4426C36.0278 72.8342 43.2798 72.12 49.8703 69.3901C56.4609 66.6602 62.0939 62.0373 66.0571 56.106C70.0202 50.1747 72.1356 43.2013 72.1356 36.0678L54.1017 36.0678C54.1017 39.6346 53.044 43.1212 51.0624 46.0869C49.0808 49.0526 46.2643 51.364 42.9691 52.7289C39.6738 54.0939 36.0478 54.451 32.5496 53.7552C29.0513 53.0593 25.838 51.3418 23.3159 48.8197C20.7938 46.2976 19.0763 43.0843 18.3804 39.586C17.6846 36.0878 18.0417 32.4618 19.4066 29.1665C20.7716 25.8713 23.083 23.0547 26.0487 21.0732C29.0144 19.0916 32.501 18.0339 36.0678 18.0339L36.0678 0Z" fill="white"/>
<path d="M36.0678 0C31.3313 -5.64821e-08 26.6412 0.932921 22.2652 2.7455C17.8893 4.55807 13.9132 7.21481 10.564 10.564C7.21481 13.9132 4.55807 17.8893 2.7455 22.2653C0.93292 26.6412 -7.1519e-07 31.3313 0 36.0678L18.0339 36.0678C18.0339 33.6996 18.5004 31.3545 19.4066 29.1665C20.3129 26.9785 21.6413 24.9905 23.3159 23.3159C24.9905 21.6413 26.9785 20.3129 29.1665 19.4066C31.3545 18.5004 33.6995 18.0339 36.0678 18.0339L36.0678 0Z" fill="#5CE1E6"/>
<circle cx="36.0678" cy="36.0678" r="11.2712" fill="#5CE1E6"/>
<path d="M47.339 36.0678C47.339 34.5877 47.0475 33.122 46.481 31.7545C45.9146 30.387 45.0844 29.1445 44.0377 28.0979C42.9911 27.0513 41.7486 26.221 40.3811 25.6546C39.0136 25.0882 37.548 24.7966 36.0678 24.7966C34.5876 24.7966 33.122 25.0882 31.7545 25.6546C30.387 26.221 29.1445 27.0513 28.0979 28.0979C27.0512 29.1445 26.221 30.387 25.6546 31.7545C25.0882 33.122 24.7966 34.5877 24.7966 36.0678L36.0678 36.0678H47.339Z" fill="white"/>
</svg>
